<?xml version="1.0" encoding="UTF-8"?>
<svg width="500pt" height="500pt" preserveAspectRatio="xMidYMid" version="1.0" viewBox="0 0 500 500" xml:space="preserve" xmlns="http://www.w3.org/2000/svg"><metadata>
Created by potrace 1.10, written by Peter Selinger 2001-2011
</metadata><g transform="matrix(.1 0 0 -.1 0 432)"><g transform="translate(1820.6 -330.82)"><path d="m642 2482c-33-26-28-80 10-102 25-13 30-13 55 2 21 12 29 26 31 52 3 30-1 37-27 50-37 20-41 20-69-2z"/><path d="m642 1914c-33-23-30-76 4-99 25-16 29-16 60-1 29 13 34 21 34 50 0 25-6 38-25 50-30 20-45 20-73 0z"/></g></g></svg>
