<?xml version="1.0" standalone="no"?>
<!DOCTYPE svg PUBLIC "-//W3C//DTD SVG 20010904//EN"
 "http://www.w3.org/TR/2001/REC-SVG-20010904/DTD/svg10.dtd">
<svg version="1.0" xmlns="http://www.w3.org/2000/svg"
 width="900.000000pt" height="432.000000pt" viewBox="0 0 900.000000 432.000000"
 preserveAspectRatio="xMidYMid meet">
<metadata>
Created by potrace 1.10, written by Peter Selinger 2001-2011
</metadata>
<g transform="translate(0.000000,432.000000) scale(0.100000,-0.100000)"
fill="#000000" stroke="none">
<path d="M2533 3440 l-23 -9 0 -1281 0 -1280 26 -10 c16 -6 495 -10 1299 -10
1197 0 1274 1 1294 18 21 16 22 23 19 212 l-3 195 -55 0 -55 0 -3 -147 c-2
-143 -3 -148 -25 -153 -12 -3 -551 -4 -1197 -3 l-1175 3 0 1175 0 1175 1175 3
c646 1 1185 0 1197 -3 22 -5 23 -10 25 -153 l3 -147 55 0 55 0 3 195 c3 189 2
196 -19 213 -20 16 -96 17 -1298 16 -736 0 -1286 -4 -1298 -9z"/>
<path d="M3690 3233 c-50 -4 -171 -33 -239 -58 -330 -119 -595 -413 -684 -760
-52 -199 -38 -446 37 -651 22 -59 88 -183 132 -245 74 -104 217 -237 329 -306
66 -40 200 -98 265 -113 19 -4 50 -13 68 -18 88 -28 380 -23 502 9 303 79 566
292 708 574 36 71 60 135 72 190 5 22 13 52 19 67 28 74 22 375 -10 498 -99
383 -410 692 -794 790 -98 25 -260 34 -405 23z m251 -205 c48 -17 68 -45 69
-97 0 -41 -6 -69 -45 -201 -27 -96 -75 -346 -75 -396 l0 -31 -70 -1 c-70 0
-70 0 -79 31 -5 18 -21 64 -34 102 -49 141 -59 186 -59 279 0 82 3 99 32 159
59 125 165 189 261 155z m-681 -562 c36 -19 74 -41 85 -47 11 -6 92 -47 180
-92 l160 -82 -3 -55 c-2 -34 -9 -59 -19 -67 -28 -22 -113 -33 -249 -33 -131 0
-136 1 -200 32 -70 34 -164 126 -164 159 0 10 -4 20 -9 23 -5 4 -12 23 -16 44
-6 40 14 111 43 144 30 36 98 27 192 -26z m1244 -1 c15 -8 33 -15 38 -15 18 0
86 -60 107 -94 28 -45 29 -136 2 -160 -43 -39 -88 -45 -316 -46 -121 0 -247
-5 -280 -10 -65 -11 -74 -5 -75 40 0 14 -7 34 -15 44 -8 11 -15 25 -15 30 1
10 95 84 141 111 10 6 44 26 76 45 32 19 78 42 103 52 59 21 194 23 234 3z
m-626 -225 c80 -49 59 -173 -32 -196 -39 -9 -99 28 -115 71 -11 33 -11 42 5
77 11 25 29 44 48 53 43 19 56 18 94 -5z m154 -173 c157 -107 238 -185 279
-267 31 -60 33 -72 33 -165 1 -95 -1 -102 -29 -145 -33 -49 -95 -90 -136 -90
-29 0 -67 37 -91 90 -35 77 -48 111 -48 125 0 8 -6 29 -14 47 -8 18 -21 52
-30 76 -42 112 -49 129 -60 152 -7 14 -18 44 -26 67 -13 41 -12 42 26 87 22
25 44 45 51 46 7 0 27 -10 45 -23z m-282 -52 c7 -8 23 -15 35 -15 37 0 48 -22
32 -66 -8 -22 -25 -73 -37 -114 -13 -41 -27 -79 -31 -85 -5 -5 -9 -16 -9 -25
0 -30 -66 -144 -111 -190 -63 -65 -159 -110 -234 -110 -71 0 -145 46 -170 104
-24 56 9 104 136 202 114 87 243 202 289 259 47 57 76 69 100 40z"/>
<path d="M5484 2736 c-3 -8 -4 -27 -2 -43 3 -26 7 -28 43 -28 40 0 40 0 40 40
0 39 -1 40 -38 43 -26 2 -39 -1 -43 -12z"/>
<path d="M5165 2722 c-13 -9 -35 -56 -46 -97 -4 -16 -24 -75 -44 -130 -34 -95
-50 -142 -62 -192 -5 -21 -2 -23 39 -23 47 0 68 13 68 42 0 11 10 29 23 41 19
20 29 22 85 17 l64 -5 21 -45 c21 -42 25 -45 66 -48 l43 -3 -5 38 c-3 21 -21
83 -42 138 -20 55 -40 114 -44 130 -4 17 -13 40 -19 52 -7 12 -12 31 -12 42 0
11 -10 27 -22 35 -23 16 -95 21 -113 8z m84 -193 c19 -61 16 -69 -29 -69 -38
0 -40 2 -40 30 0 17 10 50 21 73 24 46 22 47 48 -34z"/>
<path d="M6112 2722 c-12 -4 -38 -22 -57 -41 -30 -29 -35 -40 -35 -80 1 -71
34 -100 155 -137 70 -21 85 -30 85 -54 0 -28 -33 -50 -78 -50 -33 0 -45 5 -65
31 -20 26 -29 30 -63 27 -38 -3 -39 -4 -36 -38 1 -20 12 -44 25 -56 29 -28 98
-54 142 -54 45 0 114 27 144 56 33 31 36 116 7 154 -22 29 -77 60 -107 60 -34
0 -109 41 -109 60 0 50 79 66 124 25 37 -34 106 -36 106 -3 0 34 -46 86 -88
98 -40 11 -114 12 -150 2z"/>
<path d="M8218 2689 c-10 -6 -18 -19 -18 -31 0 -11 -11 -29 -25 -40 -33 -26
-33 -65 -1 -78 23 -8 24 -14 28 -115 3 -99 5 -108 28 -126 31 -23 88 -35 109
-22 35 22 20 83 -20 83 -17 0 -19 9 -19 89 l0 90 28 3 c24 3 27 7 27 38 0 28
-4 35 -25 40 -17 4 -26 14 -28 30 -2 14 -7 28 -10 31 -14 13 -58 18 -74 8z"/>
<path d="M5785 2614 c-32 -16 -61 -18 -70 -4 -9 14 -62 12 -72 -2 -11 -18 -13
-289 -2 -310 7 -12 22 -18 45 -18 43 0 52 20 48 110 -5 107 18 150 80 150 23
0 26 4 26 39 0 46 -16 56 -55 35z"/>
<path d="M8048 2610 c-31 -17 -38 -18 -48 -5 -18 22 -67 19 -80 -4 -11 -21
-14 -261 -4 -299 6 -20 12 -23 48 -20 l41 3 6 100 c3 55 9 108 13 118 11 23
38 37 70 37 23 0 26 4 26 39 0 26 -5 41 -16 45 -19 7 -12 9 -56 -14z"/>
<path d="M5485 2608 c-3 -8 -4 -83 -3 -168 l3 -155 40 0 40 0 0 165 0 165 -38
3 c-24 2 -39 -1 -42 -10z"/>
<path d="M6416 2604 c-3 -9 -6 -65 -6 -126 0 -126 14 -164 74 -192 42 -20 47
-20 91 1 29 14 40 15 55 5 28 -17 77 -15 84 4 3 9 6 78 6 154 0 76 -3 145 -6
154 -9 24 -71 21 -84 -3 -5 -11 -10 -62 -10 -115 0 -103 -10 -126 -55 -126
-41 0 -55 34 -55 133 0 49 -5 97 -10 108 -13 24 -75 27 -84 3z"/>
<path d="M6796 2604 c-3 -9 -6 -112 -6 -229 0 -230 -1 -225 54 -225 36 0 46
20 46 87 0 67 5 73 45 47 33 -22 81 -12 126 26 30 24 38 40 48 87 29 150 -70
263 -184 211 -21 -9 -31 -9 -46 0 -27 17 -76 15 -83 -4z m196 -81 c24 -22 25
-118 1 -145 -20 -22 -66 -24 -87 -2 -26 25 -25 117 1 147 20 22 61 22 85 0z"/>
<path d="M7170 2601 c-6 -12 -10 -100 -10 -216 0 -116 4 -204 10 -216 11 -19
43 -25 74 -13 12 5 16 21 16 70 0 72 13 87 52 60 30 -22 64 -20 104 5 59 36
74 67 74 154 0 61 -4 85 -21 112 -37 60 -104 79 -168 47 -30 -15 -34 -15 -50
0 -24 22 -68 20 -81 -3z m209 -87 c26 -33 27 -86 4 -125 -16 -26 -23 -30 -57
-27 -36 3 -40 6 -55 45 -13 37 -13 48 -2 80 16 44 26 53 63 53 17 0 34 -9 47
-26z"/>
<path d="M7625 2605 c-44 -19 -66 -48 -81 -106 -16 -59 -4 -127 28 -168 22
-29 89 -61 128 -61 39 0 106 32 128 61 10 13 24 45 31 70 11 40 11 55 -3 101
-16 56 -41 86 -89 106 -36 15 -104 14 -142 -3z m119 -81 c20 -20 22 -122 2
-149 -8 -11 -26 -18 -46 -18 -20 0 -38 7 -46 18 -20 27 -18 124 3 147 20 22
66 24 87 2z"/>
<path d="M642 2482 c-33 -26 -28 -80 10 -102 25 -13 30 -13 55 2 21 12 29 26
31 52 3 30 -1 37 -27 50 -37 20 -41 20 -69 -2z"/>
<path d="M1018 2485 c-35 -19 -44 -50 -24 -80 20 -31 52 -40 82 -24 45 23 44
87 -1 107 -31 14 -24 15 -57 -3z"/>
<path d="M1392 2488 c-27 -14 -38 -51 -24 -83 22 -47 87 -40 111 12 10 21 8
28 -18 54 -32 32 -36 33 -69 17z"/>
<path d="M1752 2482 c-33 -25 -27 -77 11 -100 25 -15 29 -15 55 0 37 23 43 75
10 100 -13 9 -30 18 -38 18 -8 0 -25 -9 -38 -18z"/>
<path d="M2120 2471 c-34 -33 -31 -61 7 -86 32 -21 70 -12 85 20 15 33 3 69
-27 83 -34 16 -32 16 -65 -17z"/>
<path d="M6030 2130 c-11 -11 -20 -26 -20 -34 0 -19 27 -46 46 -46 52 0 73 56
32 84 -29 20 -34 20 -58 -4z"/>
<path d="M5037 2113 c-4 -3 -7 -105 -7 -225 l0 -218 45 0 45 0 0 63 c0 36 5
68 12 75 7 7 40 12 79 12 65 0 68 1 108 41 39 39 41 44 41 101 0 72 -17 105
-70 136 -33 19 -54 22 -143 22 -57 0 -107 -3 -110 -7z m218 -117 c17 -32 18
-36 2 -60 -22 -32 -85 -53 -116 -37 -17 10 -21 21 -21 65 0 29 3 56 7 59 3 4
30 7 58 7 49 0 53 -2 70 -34z"/>
<path d="M6917 2084 c-4 -4 -7 -20 -7 -36 0 -21 -7 -32 -25 -40 -33 -15 -33
-52 -1 -73 23 -15 24 -23 28 -119 3 -96 5 -105 28 -125 27 -22 113 -30 125
-10 12 19 -4 55 -30 67 -25 12 -26 14 -23 99 3 84 4 87 28 93 18 4 26 14 28
33 2 15 -1 28 -7 28 -6 1 -15 3 -21 4 -5 1 -14 3 -19 4 -6 0 -11 18 -13 39 -3
36 -5 37 -43 40 -23 2 -44 0 -48 -4z"/>
<path d="M5427 2003 c-4 -3 -7 -80 -7 -170 l0 -164 43 3 42 3 3 106 c3 119 11
135 74 148 30 6 33 10 33 41 0 29 -4 36 -23 38 -13 2 -33 -3 -46 -11 -19 -13
-25 -13 -41 -1 -20 15 -67 19 -78 7z"/>
<path d="M5735 2002 c-121 -42 -143 -231 -36 -309 43 -32 149 -33 192 -1 47
35 69 81 69 146 -1 104 -52 162 -148 168 -31 2 -66 0 -77 -4z m103 -89 c29
-42 35 -70 22 -108 -12 -35 -43 -65 -68 -65 -27 0 -62 51 -62 92 0 92 66 141
108 81z"/>
<path d="M6022 1997 c-6 -7 -9 -78 -9 -177 l2 -164 -27 -25 c-18 -16 -28 -34
-28 -53 0 -26 2 -28 43 -28 36 0 49 6 75 33 l32 33 0 192 c0 106 -3 193 -7
193 -51 8 -73 7 -81 -4z"/>
<path d="M6262 2002 c-12 -4 -38 -22 -56 -40 -26 -25 -35 -44 -40 -81 -11 -81
1 -126 46 -171 40 -39 42 -40 113 -40 67 0 74 2 110 33 27 23 37 39 32 50 -8
21 -66 23 -93 2 -40 -30 -121 -2 -112 41 3 17 15 20 108 24 l105 5 -3 49 c-5
102 -99 159 -210 128z m100 -79 c34 -31 23 -43 -42 -43 -66 0 -79 15 -37 43
29 21 56 21 79 0z"/>
<path d="M6622 2002 c-12 -4 -38 -22 -56 -40 -26 -25 -35 -44 -40 -81 -11 -81
1 -126 46 -171 40 -39 42 -40 113 -40 69 0 73 1 109 37 47 47 47 86 0 91 -22
2 -38 -5 -62 -28 -39 -36 -55 -38 -87 -5 -36 35 -36 114 0 150 33 33 51 32 85
-5 21 -23 37 -30 64 -30 32 0 36 3 36 25 0 15 -14 40 -33 61 -29 32 -39 36
-92 39 -33 2 -70 1 -83 -3z"/>
<path d="M642 1914 c-33 -23 -30 -76 4 -99 25 -16 29 -16 60 -1 29 13 34 21
34 50 0 25 -6 38 -25 50 -30 20 -45 20 -73 0z"/>
<path d="M1018 1919 c-47 -27 -45 -80 3 -104 65 -34 121 44 67 95 -24 22 -44
25 -70 9z"/>
<path d="M1380 1910 c-33 -33 -26 -76 18 -99 41 -22 101 33 80 73 -26 48 -66
58 -98 26z"/>
<path d="M1752 1912 c-33 -25 -27 -77 11 -100 25 -15 29 -15 55 0 37 23 43 75
10 100 -13 9 -30 18 -38 18 -8 0 -25 -9 -38 -18z"/>
<path d="M2123 1915 c-40 -28 -32 -79 18 -105 20 -11 56 1 71 24 14 20 8 56
-12 76 -24 24 -48 25 -77 5z"/>
</g>
</svg>
