<?xml version="1.0" encoding="UTF-8"?>
<svg width="500pt" height="500pt" preserveAspectRatio="xMidYMid" version="1.0" viewBox="0 0 500 500" xmlns="http://www.w3.org/2000/svg">
 <metadata>Created by potrace 1.10, written by Peter Selinger 2001-2011</metadata>
 <g transform="matrix(.1 0 0 -.1 0 432)">
  <path d="m2363.6 2902.3c-50-4-171-33-239-58-330-119-595-413-684-760-52-199-38-446 37-651 22-59 88-183 132-245 74-104 217-237 329-306 66-40 200-98 265-113 19-4 50-13 68-18 88-28 380-23 502 9 303 79 566 292 708 574 36 71 60 135 72 190 5 22 13 52 19 67 28 74 22 375-10 498-99 383-410 692-794 790-98 25-260 34-405 23zm251-205c48-17 68-45 69-97 0-41-6-69-45-201-27-96-75-346-75-396v-31l-70-1c-70 0-70 0-79 31-5 18-21 64-34 102-49 141-59 186-59 279 0 82 3 99 32 159 59 125 165 189 261 155zm-681-562c36-19 74-41 85-47s92-47 180-92l160-82-3-55c-2-34-9-59-19-67-28-22-113-33-249-33-131 0-136 1-200 32-70 34-164 126-164 159 0 10-4 20-9 23-5 4-12 23-16 44-6 40 14 111 43 144 30 36 98 27 192-26zm1244-1c15-8 33-15 38-15 18 0 86-60 107-94 28-45 29-136 2-160-43-39-88-45-316-46-121 0-247-5-280-10-65-11-74-5-75 40 0 14-7 34-15 44-8 11-15 25-15 30 1 10 95 84 141 111 10 6 44 26 76 45s78 42 103 52c59 21 194 23 234 3zm-626-225c80-49 59-173-32-196-39-9-99 28-115 71-11 33-11 42 5 77 11 25 29 44 48 53 43 19 56 18 94-5zm154-173c157-107 238-185 279-267 31-60 33-72 33-165 1-95-1-102-29-145-33-49-95-90-136-90-29 0-67 37-91 90-35 77-48 111-48 125 0 8-6 29-14 47s-21 52-30 76c-42 112-49 129-60 152-7 14-18 44-26 67-13 41-12 42 26 87 22 25 44 45 51 46 7 0 27-10 45-23zm-282-52c7-8 23-15 35-15 37 0 48-22 32-66-8-22-25-73-37-114-13-41-27-79-31-85-5-5-9-16-9-25 0-30-66-144-111-190-63-65-159-110-234-110-71 0-145 46-170 104-24 56 9 104 136 202 114 87 243 202 289 259 47 57 76 69 100 40z"/>
 </g>
</svg>
