<?xml version="1.0" encoding="UTF-8"?>
<svg width="500pt" height="500pt" preserveAspectRatio="xMidYMid" version="1.0" viewBox="0 0 500 500" xml:space="preserve" xmlns="http://www.w3.org/2000/svg"><metadata>
Created by potrace 1.10, written by Peter Selinger 2001-2011
</metadata><g transform="matrix(.1 0 0 -.1 0 432)"><path d="m1203.4 3110.4-23-9v-2561l26-10c16-6 495-10 1299-10 1197 0 1274 1 1294 18 21 16 22 23 19 212l-3 195h-110l-3-147c-2-143-3-148-25-153-12-3-551-4-1197-3l-1175 3v2350l1175 3c646 1 1185 0 1197-3 22-5 23-10 25-153l3-147h110l3 195c3 189 2 196-19 213-20 16-96 17-1298 16-736 0-1286-4-1298-9z"/></g></svg>
